<svg xmlns="http://www.w3.org/2000/svg" width="29.806" height="23.845" viewBox="0 0 29.806 23.845"><defs><style>.a{fill:#fff;}</style></defs><g transform="translate(0 -48)"><g transform="translate(4.968 49.987)"><path class="a" d="M89.935,80a9.935,9.935,0,1,0,9.935,9.935A9.935,9.935,0,0,0,89.935,80Zm0,18.877a8.942,8.942,0,1,1,8.942-8.942A8.942,8.942,0,0,1,89.935,98.877Z" transform="translate(-80 -80)"/></g><g transform="translate(25.832 48.001)"><g transform="translate(0 0)"><path class="a" d="M419.22,48.106a1.216,1.216,0,0,0-1.329.264A6.417,6.417,0,0,0,416,52.937v6.5a1.49,1.49,0,0,0,.994,1.4v9.53a1.49,1.49,0,1,0,2.981,0V49.233A1.216,1.216,0,0,0,419.22,48.106Zm-.24,22.26a.5.5,0,1,1-.994,0V60.928h.994Zm0-10.432h-1.49a.5.5,0,0,1-.5-.5v-6.5a5.43,5.43,0,0,1,1.6-3.864.215.215,0,0,1,.154-.068.244.244,0,0,1,.092.019.216.216,0,0,1,.14.209Z" transform="translate(-416 -48.013)"/></g></g><g transform="translate(8.942 56.445)"><path class="a" d="M145.987,184a1.987,1.987,0,1,0,1.987,1.987A1.987,1.987,0,0,0,145.987,184Zm0,2.981a.994.994,0,1,1,.994-.994A.994.994,0,0,1,145.987,186.981Z" transform="translate(-144 -184)"/></g><g transform="translate(6.955 53.961)"><path class="a" d="M119.991,146.818l-.873-.873a.553.553,0,0,1-.163-.394A1.552,1.552,0,0,0,117.4,144h-1.987a1.56,1.56,0,0,0-1.1.454l-1.867,1.867a1.54,1.54,0,0,0-.454,1.1v2.107a1.54,1.54,0,0,0,.454,1.1l.873.873a.553.553,0,0,1,.163.394,1.552,1.552,0,0,0,1.55,1.55h.994a1.56,1.56,0,0,0,1.1-.454l1.37-1.37a.562.562,0,0,1,.394-.163,1.552,1.552,0,0,0,1.55-1.55v-1.987A1.54,1.54,0,0,0,119.991,146.818Zm-.539,3.083a.557.557,0,0,1-.557.557,1.56,1.56,0,0,0-1.1.454l-1.37,1.37a.562.562,0,0,1-.394.163h-.994a.557.557,0,0,1-.557-.557,1.54,1.54,0,0,0-.454-1.1l-.873-.873a.553.553,0,0,1-.163-.394v-2.107a.553.553,0,0,1,.163-.394l1.867-1.867a.562.562,0,0,1,.394-.163H117.4a.557.557,0,0,1,.557.557,1.54,1.54,0,0,0,.454,1.1l.873.873a.553.553,0,0,1,.163.394Z" transform="translate(-112 -144)"/></g><g transform="translate(10.929 58.929)"><path class="a" d="M184.8,226.134l-1.987-1.987a.5.5,0,0,0-.848.351v.994a.5.5,0,0,1-.5.5,1.49,1.49,0,0,0-1.49,1.49.5.5,0,0,1-.5.5,1.49,1.49,0,0,0-1.49,1.49.5.5,0,0,1-.5.5H176.5a.5.5,0,0,0-.351.848l1.987,1.987a.5.5,0,0,0,.351.146h.994a1.49,1.49,0,0,0,1.49-1.49.5.5,0,0,1,.5-.5,1.49,1.49,0,0,0,1.49-1.49.5.5,0,0,1,.5-.5,1.49,1.49,0,0,0,1.49-1.49v-.994A.5.5,0,0,0,184.8,226.134Zm-.848,1.345a.5.5,0,0,1-.5.5,1.49,1.49,0,0,0-1.49,1.49.5.5,0,0,1-.5.5,1.49,1.49,0,0,0-1.49,1.49.5.5,0,0,1-.5.5h-.788l-1.006-1.006a1.49,1.49,0,0,0,1.3-1.478.5.5,0,0,1,.5-.5,1.49,1.49,0,0,0,1.49-1.49.5.5,0,0,1,.5-.5,1.49,1.49,0,0,0,1.478-1.3l1.006,1.006Z" transform="translate(-176.002 -224.002)"/></g><g transform="translate(14.407 51.975)"><path class="a" d="M239.89,117.207l-.085-.085-2.484-2.484-2.073-2.072a1.9,1.9,0,1,0-2.689,2.69l.085.085,2.484,2.484L237.2,119.9a1.9,1.9,0,1,0,2.689-2.69Zm-6.568-3.994A.909.909,0,0,1,233.9,113h0a.916.916,0,0,1,.642.266l1.225,1.225h-2.564A.909.909,0,0,1,233.322,113.213Zm.872,2.273h2.569l1.49,1.49h-2.569Zm4.932,3.764a.909.909,0,0,1-.579.211h0a.915.915,0,0,1-.642-.266l-1.225-1.224h2.564A.909.909,0,0,1,239.127,119.25Z" transform="translate(-232.002 -112.01)"/></g><g transform="translate(0 48)"><path class="a" d="M3.974,48v3.974H2.981V48H1.987v3.974H.994V48H0v6.458a2.473,2.473,0,0,0,.994,1.974V70.355a1.49,1.49,0,1,0,2.981,0V56.432a2.473,2.473,0,0,0,.994-1.974V48ZM2.981,70.355a.5.5,0,1,1-.994,0V56.942h.994Zm.994-15.9a1.49,1.49,0,1,1-2.981,0v-1.49H3.974Z" transform="translate(0 -48)"/></g></g></svg>