<svg xmlns="http://www.w3.org/2000/svg" width="9.609" height="13.727" viewBox="0 0 9.609 13.727"><defs><style>.a{fill:#e40006;}</style></defs><g transform="translate(-71.998)"><g transform="translate(71.998 0)"><path d="M81.378,2.288H80.235V.229a.229.229,0,0,0-.293-.219L72.162,2.3s-.008,0-.013.006a.33.33,0,0,0-.073.043.25.25,0,0,0-.025.027.241.241,0,0,0-.026.039.237.237,0,0,0-.014.033A.215.215,0,0,0,72,2.5c0,.008,0,.014,0,.022V13.5a.229.229,0,0,0,.229.229h9.152a.229.229,0,0,0,.229-.229V2.517A.229.229,0,0,0,81.378,2.288ZM79.777.534V2.288H73.816ZM81.15,13.27H72.456V2.745H81.15Z" transform="translate(-71.998 0)"/></g><g transform="translate(73.6 3.661)"><path class="a" d="M129.6,128a.229.229,0,0,0-.2.111l-.49.817-.49-.817a.229.229,0,0,0-.425.118v1.83a.229.229,0,0,0,.458,0v-1l.262.436a.238.238,0,0,0,.392,0l.262-.436v1a.229.229,0,1,0,.458,0v-1.83A.229.229,0,0,0,129.6,128Z" transform="translate(-127.997 -127.999)"/></g><g transform="translate(75.659 3.661)"><path class="a" d="M200.913,129.37a.229.229,0,0,0,0-.458h-.458v-.458h.458a.229.229,0,0,0,0-.458h-.686a.229.229,0,0,0-.229.229v1.83a.229.229,0,0,0,.229.229h.686a.229.229,0,0,0,0-.458h-.458v-.458Z" transform="translate(-199.998 -127.997)"/></g><g transform="translate(77.031 3.658)"><path class="a" d="M249.141,127.908a.229.229,0,0,0-.229.229V129l-.48-.963a.229.229,0,0,0-.435.1v1.83a.229.229,0,0,0,.458,0v-.861l.48.963a.229.229,0,0,0,.435-.1v-1.83A.229.229,0,0,0,249.141,127.908Z" transform="translate(-247.998 -127.905)"/></g><g transform="translate(78.633 3.661)"><path class="a" d="M305.142,128a.229.229,0,0,0-.229.229V129.6a.229.229,0,1,1-.458,0v-1.373a.229.229,0,1,0-.458,0V129.6a.686.686,0,1,0,1.373,0v-1.373A.229.229,0,0,0,305.142,128Z" transform="translate(-303.998 -127.997)"/></g><g transform="translate(72.913 8.008)"><path d="M111.548,280h-7.321a.229.229,0,0,0,0,.458h7.321a.229.229,0,0,0,0-.458Z" transform="translate(-103.998 -279.997)"/></g><g transform="translate(72.913 9.38)"><path d="M111.548,328h-7.321a.229.229,0,0,0,0,.458h7.321a.229.229,0,0,0,0-.458Z" transform="translate(-103.998 -327.997)"/></g><g transform="translate(72.913 10.753)"><path d="M111.548,376h-7.321a.229.229,0,0,0,0,.458h7.321a.229.229,0,0,0,0-.458Z" transform="translate(-103.998 -375.997)"/></g></g></svg>