<svg xmlns="http://www.w3.org/2000/svg" width="25" height="25" viewBox="0 0 19.487 19.486"><defs><style>.a{fill:#fd0000;}</style></defs><g transform="translate(0 -0.005)"><g transform="translate(2.055 0.005)"><path class="a" d="M56.659,2.731h-.693c.1-.771.531-.81.727-.828a.381.381,0,0,0,.346-.379V.385a.381.381,0,0,0-.4-.38C55.434.073,54,.68,54,3.19V5.171a.6.6,0,0,0,.6.6h2.059a.6.6,0,0,0,.6-.6V3.331A.6.6,0,0,0,56.659,2.731ZM56.5,5.009H54.761V3.19c0-1.751.779-2.24,1.517-2.378v.4c-.51.155-1.1.613-1.1,1.9a.381.381,0,0,0,.381.381H56.5Z" transform="translate(-54 -0.005)"/></g><g transform="translate(5.946 0.005)"><path class="a" d="M158.893,2.731H158.2c.1-.771.531-.81.727-.828a.381.381,0,0,0,.346-.379V.385a.381.381,0,0,0-.4-.38c-1.2.068-2.637.675-2.637,3.185V5.171a.6.6,0,0,0,.6.6h2.059a.6.6,0,0,0,.6-.6V3.331A.6.6,0,0,0,158.893,2.731Zm-.162,2.278H157V3.19c0-1.751.779-2.24,1.517-2.378v.4c-.51.155-1.1.613-1.1,1.9a.381.381,0,0,0,.381.381h.935Z" transform="translate(-156.234 -0.005)"/></g><g transform="translate(10.2 2.968)"><path d="M268.65,77.977a.38.38,0,1,0,.112.269A.383.383,0,0,0,268.65,77.977Z" transform="translate(-268 -77.865)"/></g><g transform="translate(0 2.968)"><path d="M12.722,77.864h-.48a.381.381,0,1,0,0,.761h.48A6,6,0,0,1,13.961,90.5a.381.381,0,0,0-.3.372v2.211l-2.344-2.344a.381.381,0,0,0-.269-.111H6.765a6,6,0,0,1-5.25-8.917.381.381,0,1,0-.665-.37A6.766,6.766,0,0,0,6.765,91.393h4.123l2.883,2.883a.381.381,0,0,0,.65-.269V91.178a6.765,6.765,0,0,0-1.7-13.314Z" transform="translate(0 -77.864)"/></g><g transform="translate(4.679 6.76)"><path d="M132.685,177.492h-9.368a.381.381,0,1,0,0,.761h9.368a.381.381,0,1,0,0-.761Z" transform="translate(-122.937 -177.492)"/></g><g transform="translate(4.679 8.79)"><path d="M132.685,230.825h-9.368a.381.381,0,1,0,0,.761h9.368a.381.381,0,1,0,0-.761Z" transform="translate(-122.937 -230.825)"/></g><g transform="translate(4.679 10.82)"><path d="M132.685,284.158h-9.368a.381.381,0,1,0,0,.761h9.368a.381.381,0,1,0,0-.761Z" transform="translate(-122.937 -284.158)"/></g><g transform="translate(9.053 12.85)"><path d="M243.245,337.492h-4.993a.381.381,0,1,0,0,.761h4.993a.381.381,0,0,0,0-.761Z" transform="translate(-237.871 -337.492)"/></g><g transform="translate(6.906 12.85)"><path d="M181.833,337.491h-.006a.381.381,0,1,0,0,.761h.006a.381.381,0,0,0,0-.761Z" transform="translate(-181.446 -337.491)"/></g></g></svg>