<?xml version="1.0" encoding="UTF-8" standalone="no"?><svg xmlns="http://www.w3.org/2000/svg" xmlns:xlink="http://www.w3.org/1999/xlink" width="32px" height="32px" viewBox="0 0 21 18" version="1.1"><title>swipe_right [#1378]</title><g id="Page-1" stroke="none" stroke-width="1" fill="none" fill-rule="evenodd"><g id="Dribbble-Light-Preview" transform="translate(-139.000000, -800.000000)" fill="#E63E2C"><g id="icons" transform="translate(56.000000, 160.000000)"><path d="M87.2 645c0-.552-.47-1-1.05-1h-2.1c-.58 0-1.05.448-1.05 1s.47 1 1.05 1h2.1c.58 0 1.05-.448 1.05-1m16.186-1.169l-.374-.357-3.34-3.18a1.088 1.088 0 0 0-1.485 0 .966.966 0 0 0 0 1.413l1.765 1.561c.331.315.097.732-.371.732H94.19c-.58 0-1.05.448-1.05 1s.47 1 1.05 1h5.393c.468 0 .702.66.371.975l-1.767 1.742a1.003 1.003 0 0 0 0 1.445c.41.39 1.075.405 1.485.015l3.714-3.529a1.922 1.922 0 0 0 0-2.817m-6.04 9.211l-.35 3.557c-.196.935-1.058 1.401-2.059 1.401h-5.076c-.346 0-.67.045-.865-.226l-2.268-3.927a.953.953 0 0 1 .117-1.26c.456-.435 1.21-.373 1.58.13l.875 1.192v-8.495c0-.552.475-1 1.054-1 .747 0 1.054.646 1.054 1l.009 5.044 4.533.398c1.004.318 1.603 1.197 1.395 2.186" id="swipe_right-[#1378]"/></g></g></g><metadata><rdf:RDF xmlns:rdf="http://www.w3.org/1999/02/22-rdf-syntax-ns#" xmlns:rdfs="http://www.w3.org/2000/01/rdf-schema#" xmlns:dc="http://purl.org/dc/elements/1.1/"><rdf:Description about="https://iconscout.com/legal#licenses" dc:title="swipe,right" dc:description="swipe,right" dc:publisher="Iconscout" dc:date="2017-09-15" dc:format="image/svg+xml" dc:language="en"><dc:creator><rdf:Bag><rdf:li>Alexandru Stoica</rdf:li></rdf:Bag></dc:creator></rdf:Description></rdf:RDF></metadata></svg>